<?xml version="1.0" encoding="UTF-8"?>
<svg version="1.1" xmlns="http://www.w3.org/2000/svg" width="1024" height="1024">
<path d="M0 0 C337.92 0 675.84 0 1024 0 C1024 337.92 1024 675.84 1024 1024 C686.08 1024 348.16 1024 0 1024 C0 686.08 0 348.16 0 0 Z " fill="#5956EA" transform="translate(0,0)"/>
<path d="M0 0 C5.24933019 3.00174984 9.94340823 6.35057482 14.64233398 10.14526367 C23.85773979 17.37495543 33.66935087 23.28855309 43.82983398 29.08276367 C44.61036133 29.53280762 45.39088867 29.98285156 46.19506836 30.4465332 C65.32476919 41.45704475 85.25913171 50.09843886 105.82983398 58.08276367 C106.67674805 58.42098145 107.52366211 58.75919922 108.39624023 59.10766602 C114.33686671 61.32534912 118.44671167 61.60647457 124.4230957 58.91479492 C127.56596546 57.3540821 130.66636571 55.72508754 133.76733398 54.08276367 C146.15037468 47.71656367 158.65526717 42.55674854 171.82983398 38.08276367 C172.6607959 37.79320801 173.49175781 37.50365234 174.34790039 37.20532227 C208.40529071 25.47068301 247.96091448 22.47867044 283.82983398 24.08276367 C284.71654785 24.11466797 285.60326172 24.14657227 286.5168457 24.17944336 C327.14707667 25.83205487 372.68720932 35.06381948 408.21655273 55.55932617 C408.88799316 55.94330566 409.55943359 56.32728516 410.2512207 56.72290039 C411.98269913 57.7390766 413.68356436 58.80695513 415.38061523 59.87963867 C424.43033917 63.03628077 435.09557946 57.06808704 443.64233398 53.83276367 C444.68321167 53.44093903 444.68321167 53.44093903 445.74511719 53.04119873 C475.82583779 41.65589805 504.13257893 26.67250026 529.96411133 7.46459961 C541.74277809 -1.25919702 541.74277809 -1.25919702 547.01733398 -1.60473633 C554.30031139 -0.29141253 558.8883013 2.52745477 563.60327148 8.20385742 C570.55162349 18.84767053 566.24847507 33.45833982 563.82983398 45.08276367 C563.68384766 45.79972412 563.53786133 46.51668457 563.38745117 47.25537109 C557.8460468 73.45084009 546.22123164 96.64394973 527.82983398 116.08276367 C526.69094727 117.31833008 526.69094727 117.31833008 525.52905273 118.57885742 C518.13313197 126.33791668 509.70763537 132.16422942 500.82983398 138.08276367 C501.61293945 138.79625977 501.61293945 138.79625977 502.41186523 139.52416992 C514.04535018 150.58718626 522.50887931 163.89333245 529.82983398 178.08276367 C530.14936035 178.70119141 530.46888672 179.31961914 530.7980957 179.95678711 C537.84860898 193.82193658 542.43929888 208.17647013 545.57983398 223.39526367 C545.77851074 224.34127441 545.9771875 225.28728516 546.18188477 226.26196289 C550.14716386 246.67958252 550.19899949 267.33061316 550.147892 288.04392242 C550.14226056 290.36300222 550.13943234 292.6820747 550.1368103 295.00115967 C550.07064155 335.35874623 547.47446995 375.22818253 542.4309082 415.27368164 C541.96392842 418.98179043 541.52133235 422.69200138 541.09265137 426.40470886 C539.05790268 443.95114324 535.79304772 461.06869158 531.7355957 478.23999023 C530.8754001 481.88944543 530.04137008 485.54412998 529.20874023 489.19995117 C521.71341107 521.33251579 510.20693131 552.95685883 494.82348633 582.16333008 C493.78659942 584.16627968 492.80056931 586.18932768 491.81811523 588.21948242 C478.73353486 614.74712482 460.63910108 640.29110244 440.20874023 661.62280273 C438.41878022 663.51797995 436.71240115 665.47761703 435.01733398 667.45776367 C429.08831814 674.28555453 422.65682338 680.15291601 415.60327148 685.80541992 C413.00257572 687.94092081 410.54097157 690.1642451 408.07983398 692.45776367 C394.21916999 705.02651743 378.2005321 714.21561182 361.82983398 723.08276367 C362.74869385 723.07752686 363.66755371 723.07229004 364.61425781 723.06689453 C380.45594567 722.98900237 396.30444523 722.93473763 412.14233398 723.33276367 C413.24230713 723.34686279 414.34228027 723.36096191 415.47558594 723.37548828 C421.52835538 723.56710118 425.21549537 724.04234777 429.82983398 728.08276367 C432.17850995 731.07198763 432.24793171 734.30465813 432.15014648 738.05541992 C431.47627478 742.3205347 428.91339376 745.13054447 425.76733398 747.89526367 C421.50844967 750.50554761 417.3289939 750.22691492 412.50814724 750.21977806 C411.64492272 750.22242989 410.7816982 750.22508171 409.89231536 750.2278139 C406.97380796 750.23552799 404.05534249 750.23606688 401.13682556 750.23666382 C399.03358951 750.24067705 396.93035423 750.24511504 394.82711989 750.24994338 C389.02700042 750.26193027 383.22688928 750.26756223 377.42675984 750.27212453 C371.17911361 750.27807263 364.93147738 750.28968446 358.68383789 750.30041504 C344.29901944 750.32379706 329.91420056 750.33834907 315.52936916 750.35064446 C310.55262056 750.35489871 305.57587233 750.35946442 300.59912419 750.36422777 C274.14048005 750.38948827 247.68183528 750.41153757 221.22318172 750.42395592 C215.09214717 750.42687727 208.96111264 750.42984479 202.83007812 750.43286133 C202.06836976 750.43323224 201.30666139 750.43360315 200.52187095 750.43398529 C175.82735836 750.44613989 151.13291704 750.47708201 126.43843793 750.51878285 C101.0534786 750.56157152 75.66855693 750.58819708 50.28356056 750.59343063 C46.69797244 750.59417108 43.11238439 750.59508176 39.52679634 750.59608841 C38.82112018 750.59627902 38.11544401 750.59646964 37.38838372 750.59666603 C26.03257115 750.60017933 14.67684786 750.62047601 3.32106808 750.64688505 C-8.09480522 750.67303337 -19.5105455 750.68034128 -30.92645515 750.66978376 C-37.11096191 750.66458984 -43.2951848 750.66753198 -49.4796505 750.6922493 C-55.14189148 750.71469074 -60.80364383 750.71404115 -66.46589308 750.69504543 C-68.51375374 750.69223829 -70.56164717 750.69788337 -72.609455 750.71285836 C-94.24337909 750.86138092 -94.24337909 750.86138092 -102.67016602 742.64526367 C-108.07162233 733.4177758 -106.38074533 723.68709372 -104.35766602 713.64526367 C-101.31264787 698.11211662 -99.00054962 682.49726789 -97.09326172 666.78704834 C-96.67475252 663.34137402 -96.24852384 659.89666482 -95.82281494 656.45187378 C-95.60109138 654.6575825 -95.37969701 652.86325051 -95.15863037 651.06887817 C-93.42684783 637.02427178 -91.61443484 622.98988168 -89.79956055 608.95581055 C-89.37418171 605.66568447 -88.95082675 602.37530689 -88.52905273 599.0847168 C-86.04299015 579.70153258 -83.53327808 560.3375393 -80.17016602 541.08276367 C-79.99549805 540.06456543 -79.82083008 539.04636719 -79.64086914 537.99731445 C-73.17646425 500.76947381 -61.89300998 465.39863122 -46.17016602 431.08276367 C-45.68370605 430.01123047 -45.19724609 428.93969727 -44.69604492 427.83569336 C-39.96338004 417.41451257 -35.21861378 407.01207386 -29.98266602 396.83276367 C-15.51884654 368.42904056 -5.96142606 337.72964671 -5.98266602 305.70776367 C-5.98169922 304.14094849 -5.98169922 304.14094849 -5.98071289 302.54248047 C-6.02479892 295.93208109 -6.4263539 289.46055063 -7.17016602 282.89526367 C-9.21539338 264.50250723 -9.45266 245.34163645 -6.17016602 227.08276367 C-5.96391602 225.85299805 -5.75766602 224.62323242 -5.54516602 223.35620117 C0.00986893 192.86663434 14.00547133 166.4455319 34.3762207 143.26953125 C37.00929565 140.57187117 37.00929565 140.57187117 37.82983398 137.08276367 C36.26728793 136.01890253 34.65123831 135.03339891 33.01733398 134.08276367 C1.22586118 114.47460367 -15.40133726 78.75212144 -23.9050293 43.7097168 C-29.69047445 18.870373 -29.69047445 18.870373 -24.60766602 9.70776367 C-19.13566214 1.5516252 -9.84408018 -4.16067153 0 0 Z " fill="#2B224E" transform="translate(242.170166015625,139.917236328125)"/>
<path d="M0 0 C0.33 0 0.66 0 1 0 C1.27106711 16.72484044 0.72986014 33.21818254 -0.73095703 49.88085938 C-0.97463916 52.70598001 -1.19359938 55.5314996 -1.40234375 58.359375 C-2.29854135 69.92767354 -3.80546336 81.39172498 -5.4375 92.875 C-5.54091705 93.60726807 -5.64433411 94.33953613 -5.75088501 95.09399414 C-12.35938823 141.5904906 -25.2834608 186.77882749 -46 229 C-46.50772949 230.03769531 -47.01545898 231.07539062 -47.53857422 232.14453125 C-56.75472932 250.78407912 -67.53289151 268.3609237 -80 285 C-80.63107666 285.84739746 -80.63107666 285.84739746 -81.27490234 286.71191406 C-89.95899492 298.2972311 -99.7439629 308.79593606 -110 319 C-110.61101562 319.63421875 -111.22203125 320.2684375 -111.8515625 320.921875 C-116.68529051 325.9046607 -121.8362268 330.32847031 -127.28027344 334.63085938 C-129.21342136 336.16991298 -131.12516179 337.73396028 -133.0390625 339.296875 C-142.8011662 347.17792696 -152.81472176 353.8310264 -163.83789062 359.81542969 C-165.76149927 360.8693309 -167.6564723 361.9583746 -169.546875 363.0703125 C-188.46643335 373.83789525 -209.54892388 381.39498667 -231 385 C-231.97164376 385.17082029 -232.94328753 385.34164059 -233.94437504 385.51763725 C-246.03931441 387.40108178 -258.06916131 387.26712987 -270.28491211 387.22705078 C-272.71073909 387.22648572 -275.13656641 387.22680509 -277.56239319 387.22793579 C-283.42984509 387.22844754 -289.29723082 387.2198367 -295.16466766 387.20706047 C-302.00041586 387.19267874 -308.8361551 387.18976282 -315.67191631 387.18748413 C-327.85933503 387.18312201 -340.04672677 387.16985346 -352.23413086 387.15087891 C-364.06323106 387.13248151 -375.8923239 387.11834397 -387.72143555 387.10986328 C-388.45229561 387.10933783 -389.18315567 387.10881239 -389.936163 387.10827102 C-393.60318497 387.10566068 -397.27020698 387.10313333 -400.93722904 387.10064721 C-431.29150533 387.07996096 -461.6457489 387.04462605 -492 387 C-489.11875116 384.76501258 -486.2508037 383.06696026 -482.9765625 381.45214844 C-459.1875922 369.61462921 -436.40863378 353.04536561 -417 335 C-415.71180139 333.89178922 -414.42021142 332.78750644 -413.125 331.6875 C-403.84091261 323.566268 -395.591849 314.71270361 -388 305 C-387.23429687 304.06285156 -386.46859375 303.12570312 -385.6796875 302.16015625 C-369.4088955 281.83474567 -355.06948738 257.16647807 -348 232 C-347.72849121 231.03819824 -347.45698242 230.07639648 -347.17724609 229.08544922 C-333.06936223 178.10896221 -335.72271821 128.69093186 -362 82 C-366.22390979 74.94640064 -370.91017099 68.64395212 -376.53125 62.64453125 C-378 61 -378 61 -378 60 C-377.44876465 59.94054199 -376.8975293 59.88108398 -376.32958984 59.81982422 C-354.90580211 57.4217379 -335.3759767 52.52446738 -316 43 C-314.96488281 42.51917969 -313.92976562 42.03835938 -312.86328125 41.54296875 C-306.15540129 38.22252032 -301.05918616 33.7432546 -295.7265625 28.5859375 C-290.82384043 23.93607789 -290.82384043 23.93607789 -288 22 C-283.72425842 23.42524719 -282.55610032 26.60829906 -280.375 30.3125 C-275.9784421 37.5673479 -271.25186862 44.32814305 -266 51 C-265.25943359 51.97259766 -265.25943359 51.97259766 -264.50390625 52.96484375 C-261.32811381 57.01125841 -258.72733482 59.65696565 -253.484375 60.31640625 C-247.33687556 60.57675117 -242.98185141 59.84240759 -238 56 C-235.67718937 53.60298158 -233.71453698 51.00697542 -231.75 48.3125 C-230.92399292 47.20757202 -230.92399292 47.20757202 -230.08129883 46.08032227 C-224.34178211 38.30279559 -219.11812713 30.19515747 -214 22 C-211.04156589 23.34297338 -208.87666278 24.85783255 -206.5 27.0625 C-176.58977046 53.56384309 -139.10720094 61.18180946 -100 59 C-93.1782939 58.28484747 -86.60279405 56.82402557 -80 55 C-79.2977832 54.81276367 -78.59556641 54.62552734 -77.87207031 54.43261719 C-58.30543746 49.12128084 -39.36052488 40.35144961 -24 27 C-23.18015625 26.31292969 -22.3603125 25.62585938 -21.515625 24.91796875 C-13.95656618 18.40356247 -7.2315345 11.01546262 -1.7734375 2.63671875 C-1.18820312 1.76660156 -0.60296875 0.89648438 0 0 Z " fill="#D3A17F" transform="translate(762,476)"/>
<path d="M0 0 C3.76424413 1.72811468 5.52520303 3.63190003 8.0625 6.9375 C22.36879937 24.78542397 38.76930812 35.32133788 59.44921875 44.40234375 C92.29775935 58.86659684 114.59050164 82.33248342 128.4296875 115.41796875 C133.51313693 128.88437361 137.75539294 143.55071135 138 158 C138.01901367 158.71591309 138.03802734 159.43182617 138.05761719 160.16943359 C138.33265543 171.27241177 137.85519202 182.0557264 136.2734375 193.04785156 C136.00952887 194.93197071 135.78525347 196.82151071 135.5625 198.7109375 C131.47525061 231.77386558 112.86878203 266.04591983 90 290 C88.80373193 291.34642724 87.61543441 292.70000444 86.4375 294.0625 C85.60605469 295.01382813 85.60605469 295.01382813 84.7578125 295.984375 C83.49833313 297.42857801 82.24367143 298.87698799 80.9921875 300.328125 C69.42819899 313.50858503 56.1114228 323.71481594 42 334 C41.30986816 334.50515137 40.61973633 335.01030273 39.90869141 335.53076172 C35.97352849 338.4053417 32.00289263 341.22049783 28 344 C27.17757812 344.58652344 26.35515625 345.17304687 25.5078125 345.77734375 C10.58299021 355.91001064 -6.69976701 362.74636467 -23.78076172 368.27539062 C-25.83340679 368.94560521 -27.87273939 369.64441833 -29.91015625 370.359375 C-44.82145277 375.52649807 -59.76948043 379.10903033 -75.3125 381.8125 C-76.57078613 382.03164063 -77.82907227 382.25078125 -79.12548828 382.4765625 C-84.49269604 383.376054 -89.54483527 384.11997789 -95 384 C-88.95274091 369.49994229 -77.3397031 357.30301819 -66.3359375 346.34765625 C-63.96844954 344.05276443 -63.96844954 344.05276443 -62 341.5 C-59.82768896 338.7846112 -57.55776223 336.35583364 -55 334 C-54.34 334 -53.68 334 -53 334 C-52.34 332.68 -51.68 331.36 -51 330 C-50.34 330 -49.68 330 -49 330 C-48.73445313 329.40832031 -48.46890625 328.81664062 -48.1953125 328.20703125 C-46.96662421 325.93837477 -45.71612243 324.48152395 -43.875 322.6875 C-42.92947266 321.76517578 -42.92947266 321.76517578 -41.96484375 320.82421875 C-40.16537416 319.15353823 -38.32035411 317.57511882 -36.4375 316 C-27.34134894 308.16032116 -19.50650995 298.71842456 -11.52734375 289.7734375 C-8.81719339 286.79939305 -6.05536346 283.87967858 -3.28466797 280.9621582 C0.16262197 277.32584923 3.58490045 273.66652856 7 270 C7.81090088 269.1344751 7.81090088 269.1344751 8.63818359 268.25146484 C18.87846949 257.21704794 26.87723333 244.62905897 35 232 C35.63583008 231.01241699 36.27166016 230.02483398 36.92675781 229.00732422 C40.90055335 222.80231453 44.62202196 216.55179257 48 210 C48.73476563 208.60394531 48.73476563 208.60394531 49.484375 207.1796875 C52.99938031 200.09043521 54.02023406 194.7951001 52.375 187.0625 C50.36971167 184.05456751 48.48148093 183.73646712 45 183 C40.25492729 182.51580891 37.71470451 182.98180259 34 186 C32.05890484 189.34616059 30.59323547 192.88898994 29.0625 196.4375 C21.10157681 213.92734454 9.89072706 228.84573071 -3 243 C-3.47614746 243.52577637 -3.95229492 244.05155273 -4.44287109 244.59326172 C-9.18341116 249.81474938 -14.01339428 254.95160077 -18.84375 260.08984375 C-19.83217896 261.14196045 -19.83217896 261.14196045 -20.84057617 262.21533203 C-22.11255327 263.56809707 -23.38604297 264.91944221 -24.66137695 266.26904297 C-28.30197685 270.13486013 -31.83665618 274.07408901 -35.3190918 278.08276367 C-37.82430251 280.94019573 -40.409188 283.72035956 -43 286.5 C-46.79791373 290.59417569 -50.5466385 294.71806999 -54.20507812 298.93798828 C-61.28522026 307.07167713 -68.66876768 314.82805614 -76.30517578 322.43554688 C-78.02887573 324.15378422 -79.74703366 325.87743872 -81.46484375 327.6015625 C-82.55957451 328.69563412 -83.65461452 329.78939639 -84.75 330.8828125 C-85.26344971 331.39828644 -85.77689941 331.91376038 -86.3059082 332.44485474 C-89.88498637 336 -89.88498637 336 -91 336 C-91.25635713 328.74660128 -90.25204758 322.23116287 -88.875 315.125 C-86.33443392 301.29414368 -84.69256849 287.40812633 -83.125 273.4375 C-78.57689683 233.22744141 -73.11483273 192.7299575 -61 154 C-60.73074707 153.1332666 -60.46149414 152.2665332 -60.18408203 151.37353516 C-53.77282633 130.93461666 -45.13829795 111.56793553 -35.9375 92.25 C-35.46924805 91.26555908 -35.00099609 90.28111816 -34.51855469 89.2668457 C-31.10086461 82.14364222 -27.466918 75.1581121 -23.75 68.1875 C-18.71794633 58.68570926 -14.5542765 49.1393314 -11 39 C-10.74025391 38.28070312 -10.48050781 37.56140625 -10.21289062 36.8203125 C-5.86718579 24.75964031 -2.7710378 12.50872498 0 0 Z " fill="#5154D1" transform="translate(261,478)"/>
<path d="M0 0 C0.83292572 -0.00960754 1.66585144 -0.01921509 2.52401733 -0.02911377 C3.87845444 -0.03548859 3.87845444 -0.03548859 5.26025391 -0.04199219 C6.67741196 -0.0505423 6.67741196 -0.0505423 8.12319946 -0.05926514 C10.13566977 -0.06872645 12.14815566 -0.07525359 14.16064453 -0.07910156 C17.16289903 -0.08863253 20.1644154 -0.11956751 23.16650391 -0.15136719 C62.01078147 -0.36385467 92.97935493 9.96011345 121.86181641 36.16113281 C122.63525391 36.84949219 123.40869141 37.53785156 124.20556641 38.24707031 C138.88439236 52.02350942 149.45319009 71.4614759 156.17675781 90.24804688 C156.79273337 91.96821241 157.45531359 93.67151884 158.12353516 95.37207031 C159.26614164 99.22901345 159.88211509 102.19447813 157.95898438 105.90136719 C155.79651271 109.22770284 153.33219184 112.2862763 150.83447266 115.36425781 C140.03637058 128.74993927 136.32180415 145.26950227 137.86181641 162.16113281 C138.41565662 166.07512251 139.22670261 169.9061667 140.10791016 173.75878906 C140.35669922 174.8815625 140.60548828 176.00433594 140.86181641 177.16113281 C141.13251953 178.36125 141.40322266 179.56136719 141.68212891 180.79785156 C141.86181641 184.16113281 141.86181641 184.16113281 140.48291016 186.64550781 C121.18581604 206.66753749 99.20158135 216.71954641 71.86181641 221.16113281 C70.42322266 221.44150391 70.42322266 221.44150391 68.95556641 221.72753906 C39.75777147 225.81965426 8.16805257 216.90633778 -15.390625 199.51123047 C-20.29373307 195.72327466 -24.75464035 191.53166851 -29.13818359 187.16113281 C-29.84201172 186.48050781 -30.54583984 185.79988281 -31.27099609 185.09863281 C-54.1713175 161.36388674 -59.89161761 129.57793097 -59.48193359 97.97753906 C-58.80561937 65.07167831 -45.23158122 35.44449213 -21.59521484 12.71582031 C-7.80501132 0.07306186 -7.80501132 0.07306186 0 0 Z " fill="#FCD3A0" transform="translate(322.13818359375,286.8388671875)"/>
<path d="M0 0 C1.88006767 -0.02175285 3.76002963 -0.05605474 5.63964844 -0.10253906 C24.62441743 -0.56485989 24.62441743 -0.56485989 30.88720703 4.79882812 C31.68251831 5.59389771 31.68251831 5.59389771 32.49389648 6.4050293 C33.44780273 7.19006836 34.40170898 7.97510742 35.38452148 8.78393555 C36.55241211 9.86481445 36.55241211 9.86481445 37.74389648 10.9675293 C38.99879883 12.12768555 38.99879883 12.12768555 40.27905273 13.3112793 C42.73687157 15.63472003 45.1655393 17.95081497 47.49389648 20.4050293 C47.98889648 20.90518555 48.48389648 21.4053418 48.99389648 21.9206543 C70.30036753 44.60810032 79.9506988 77.95853049 79.64233398 108.45581055 C78.4235215 140.88263744 64.32222285 172.22741663 40.75170898 194.5534668 C18.71104382 214.4372473 -12.20148998 223.66728395 -41.51391602 222.75268555 C-56.81165188 221.89529939 -71.52350026 218.63336037 -85.50610352 212.4050293 C-86.58118164 211.9306543 -87.65625977 211.4562793 -88.76391602 210.9675293 C-101.10766187 205.15870772 -114.82521574 195.91740888 -122.50610352 184.4050293 C-122.52954102 182.1862793 -122.52954102 182.1862793 -121.88110352 179.9050293 C-121.66454102 179.03362305 -121.44797852 178.1622168 -121.22485352 177.2644043 C-120.98766602 176.32081055 -120.75047852 175.3772168 -120.50610352 174.4050293 C-116.39908751 153.32955244 -119.14125243 134.66945411 -130.50610352 116.4050293 C-132.84658319 113.24381544 -135.36795543 110.25699219 -138.01391602 107.34643555 C-140.24661939 102.94532131 -138.98659558 99.94077773 -137.50610352 95.4050293 C-137.26730469 94.64843018 -137.02850586 93.89183105 -136.7824707 93.11230469 C-131.81330657 78.10703198 -125.26085134 64.92331731 -115.50610352 52.4050293 C-114.8293457 51.52331055 -114.15258789 50.6415918 -113.45532227 49.7331543 C-93.27813664 24.20735456 -65.38148476 5.36289168 -32.50610352 1.4050293 C-21.69606866 0.33664453 -10.85579809 0.09419967 0 0 Z " fill="#FCD3A0" transform="translate(682.506103515625,286.594970703125)"/>
<path d="M0 0 C2.6223911 1.26414909 5.05952478 2.62918678 7.4765625 4.25 C17.71618109 11.04062844 28.13350745 17.26533608 39 23 C39.80969238 23.42748535 40.61938477 23.8549707 41.45361328 24.29541016 C54.28908072 31.01045699 67.42261683 36.92275839 80.74707031 42.58520508 C86.93300527 45.21611077 93.02625769 47.91356648 99 51 C104.89632363 53.6673845 111.54401046 55.02507531 118 54 C121.22002929 52.50945512 124.03520973 50.52954825 126.9375 48.5 C162.02798719 25.27454346 208.1794843 15.35602028 250 15 C251.6720752 14.97945557 251.6720752 14.97945557 253.37792969 14.95849609 C283.62612707 14.63337302 314.76558789 15.38043679 344 24 C345.7506835 24.47494233 347.50205093 24.94736717 349.25390625 25.41796875 C371.39740352 31.44665367 392.36144683 38.9050626 411.375 52 C415.21467219 54.3896694 418.57632955 54.81834043 423 54 C430.10027491 52.21706538 436.68135395 49.34463687 443.26513672 46.18554688 C448.78968952 43.53721353 454.37785539 41.05075499 459.98242188 38.57666016 C479.80200975 29.81799062 499.52520198 20.64296457 518.203125 9.62109375 C522.36719386 7.20756222 526.66128846 5.07938249 531 3 C530.05222237 23.99327461 518.20107927 47.55751586 503 62 C499.13048622 65.19989579 495.12274906 68.13594276 491 71 C490.22011719 71.55816406 489.44023438 72.11632812 488.63671875 72.69140625 C483.46551143 76.11208398 478.02009661 78.25065377 472.1875 80.25 C471.47706543 80.49645264 470.76663086 80.74290527 470.03466797 80.99682617 C459.49233079 84.41369615 448.74690276 85.28003017 437.7265625 85.203125 C435.41275483 85.21368249 433.09895238 85.22544049 430.78515625 85.23828125 C427.220605 85.24850882 423.65680046 85.25018021 420.09228516 85.22998047 C382.76932737 85.06903852 350.05580385 97.50138867 322 122 C321.12384033 122.75651855 321.12384033 122.75651855 320.22998047 123.52832031 C299.41042715 141.61930011 281.3675419 166.18485526 273.62109375 192.9453125 C273 195 273 195 272 196 C269.98035801 196.07244053 267.95832876 196.08377188 265.9375 196.0625 C264.83277344 196.05347656 263.72804688 196.04445313 262.58984375 196.03515625 C261.30787109 196.01775391 261.30787109 196.01775391 260 196 C259.731875 195.319375 259.46375 194.63875 259.1875 193.9375 C241.82914696 150.99841617 216.12090087 117.36985842 173 98 C162.66097721 93.74463242 151.94919882 90.27644875 141 88 C140.15276367 87.82243164 139.30552734 87.64486328 138.43261719 87.46191406 C126.25830479 85.26792694 113.90348786 85.61813552 101.57348633 85.54370117 C74.31182845 85.34800733 48.8374031 80.69668329 28.74609375 60.83203125 C13.44706368 45.05422642 2.65987978 21.99083703 0 0 Z " fill="#5155D1" transform="translate(246,177)"/>
<path d="M0 0 C11.00110323 7.57818399 19.23327153 18.42543496 22.125 31.6875 C23.65024608 46.84993489 21.26365289 60.20081529 12.125 72.6875 C3.58660926 82.76705255 -7.81301087 89.35362704 -21.05761719 90.95068359 C-36.22730002 92.01035514 -49.25153111 88.15632396 -61.125 78.4375 C-70.67240299 69.51615622 -76.29960778 57.91264085 -77.11328125 44.8671875 C-77.34010394 36.05686282 -76.93618242 28.7089659 -72.875 20.6875 C-72.43929688 19.82640625 -72.00359375 18.9653125 -71.5546875 18.078125 C-64.84868248 5.98532905 -54.48422269 -1.87505448 -41.51171875 -6.515625 C-27.19349524 -9.65302306 -12.54448382 -7.54708783 0 0 Z " fill="#2C224E" transform="translate(421.875,351.3125)"/>
<path d="M0 0 C9.8959634 7.96059048 17.80794344 18.44476956 19.8984375 31.3203125 C21.2271207 45.79346878 19.09731411 58.76478339 10.05078125 70.49609375 C0.44951696 81.45511259 -11.21877939 87.91916285 -25.76171875 88.98828125 C-41.55115833 89.7055755 -53.86164108 84.29055357 -65.5078125 73.703125 C-75.38530348 63.47966236 -79.3395589 50.24914054 -79.31665039 36.35742188 C-79.01512674 24.79693004 -74.68825114 15.1323244 -66.8828125 6.703125 C-66.33753906 6.07921875 -65.79226563 5.4553125 -65.23046875 4.8125 C-48.20894189 -13.61079966 -19.80246285 -14.3622258 0 0 Z " fill="#2C214E" transform="translate(658.8828125,353.296875)"/>
<path d="M0 0 C10.8949584 7.02045952 17.73989127 17.98397857 20.54296875 30.40625 C24.75621881 54.31734439 8.7200772 80.16176058 -3 100 C-4.32 100 -5.64 100 -7 100 C-10.45754604 96.47544725 -12.5991522 92.27242255 -14.75 87.875 C-15.08999023 87.18414307 -15.42998047 86.49328613 -15.78027344 85.78149414 C-35.96363094 44.18691189 -35.96363094 44.18691189 -28.4609375 22.2109375 C-23.59494194 11.51615581 -13.38283593 -3.09147578 0 0 Z " fill="#F37E35" transform="translate(517,402)"/>
<path d="M0 0 C3.21029114 2.11879215 3.81132592 2.55284517 5 6 C6.69513616 17.35741225 3.72981942 27.38718436 0 38 C-0.30534668 38.89750977 -0.61069336 39.79501953 -0.92529297 40.71972656 C-1.90330469 43.57311607 -2.91395269 46.41265221 -3.9375 49.25 C-4.24880859 50.14348145 -4.56011719 51.03696289 -4.88085938 51.95751953 C-6.98837325 57.57934498 -8.96400435 60.65829544 -14 64 C-17.31795109 65.01569931 -19.26078495 65.17600358 -22.625 64.375 C-26.12650785 62.34781124 -28.20367013 59.59265973 -30 56 C-30.56645354 50.562046 -29.35914498 47.10369106 -27.2109375 42.14453125 C-25.38308212 37.39800357 -24.1300223 32.51200964 -22.83911133 27.59643555 C-21.51004945 22.6002791 -19.90973005 17.80384335 -18 13 C-17.66097656 12.13890625 -17.32195313 11.2778125 -16.97265625 10.390625 C-13.31929865 1.79817881 -9.84013026 -1.9553086 0 0 Z " fill="#BB876B" transform="translate(554,648)"/>
<path d="M0 0 C2.9375 1.3125 2.9375 1.3125 5 3 C5.93106472 5.79319417 6.19408852 7.65976227 6.25 10.5625 C6.27578125 11.34753906 6.3015625 12.13257813 6.328125 12.94140625 C5.84070798 17.4848292 4.36905244 21.65358704 3 26 C2.45786101 27.86070901 1.92017305 29.72272007 1.38671875 31.5859375 C-6.81745042 59.73782772 -6.81745042 59.73782772 -14 64 C-17.34749193 64.95798143 -20.52803218 65.30337583 -24 65 C-27.0625 62.625 -27.0625 62.625 -29 60 C-29.33 59.67 -29.66 59.34 -30 59 C-31.25160782 50.41804533 -28.32209836 43.08929656 -25.3125 35.1875 C-24.87744141 34.00607422 -24.44238281 32.82464844 -23.99414062 31.60742188 C-22.68337299 28.06349456 -21.34395263 24.53145783 -20 21 C-19.55342041 19.80101074 -19.10684082 18.60202148 -18.64672852 17.36669922 C-18.21416748 16.21572754 -17.78160645 15.06475586 -17.3359375 13.87890625 C-16.95099121 12.84967041 -16.56604492 11.82043457 -16.16943359 10.76000977 C-12.73037321 2.64339649 -9.09476247 -0.99310625 0 0 Z " fill="#BB866B" transform="translate(643,650)"/>
<path d="M0 0 C0 3.6657415 -1.14034142 4.49020368 -3.63352966 6.99906921 C-4.15536331 7.50855606 -4.67719696 8.01804291 -5.21484375 8.54296875 C-5.74517715 9.07142899 -6.27551056 9.59988922 -6.82191467 10.1443634 C-7.94411264 11.25983786 -9.06990313 12.37170798 -10.19897461 13.48022461 C-11.93410659 15.18416758 -13.65830732 16.898584 -15.38085938 18.61523438 C-16.47073279 19.69593951 -17.56120732 20.77603884 -18.65234375 21.85546875 C-19.43205788 22.62880806 -19.43205788 22.62880806 -20.2275238 23.41777039 C-23.88285311 27 -23.88285311 27 -25 27 C-25 24.03 -25 21.06 -25 18 C-24.34 18 -23.68 18 -23 18 C-22.67 19.32 -22.34 20.64 -22 22 C-14.74 14.74 -7.48 7.48 0 0 Z " fill="#565BE4" transform="translate(195,787)"/>
<path d="M0 0 C3.32860465 1.10953488 3.5858978 1.4742514 5.3046875 4.31640625 C5.93310547 5.34024414 5.93310547 5.34024414 6.57421875 6.38476562 C7.21810547 7.46274414 7.21810547 7.46274414 7.875 8.5625 C8.29652344 9.25408203 8.71804688 9.94566406 9.15234375 10.65820312 C10.00405507 12.0555827 10.8526909 13.45484145 11.69824219 14.85595703 C13.76431711 18.25885838 15.88141221 21.62962237 18 25 C13.74724843 23.58241614 12.37115158 20.43156006 10.0625 16.8125 C9.41764648 15.8215332 9.41764648 15.8215332 8.75976562 14.81054688 C7.90986571 13.50409981 7.06295914 12.19569998 6.21923828 10.88525391 C4.50719506 8.23799764 2.75531595 5.61871961 1 3 C-0.32 3.33 -1.64 3.66 -3 4 C-2.01 2.68 -1.02 1.36 0 0 Z " fill="#E2AF84" transform="translate(474,498)"/>
<path d="M0 0 C10.10671844 2.84251456 16.09186758 12.62804497 21.2578125 21.05078125 C22.16582042 23.43549678 21.84456628 24.6352144 21 27 C20.64808594 26.2265625 20.29617188 25.453125 19.93359375 24.65625 C15.33688404 14.95875276 10.31951557 8.26804974 1.50390625 2.12890625 C1.00761719 1.75636719 0.51132812 1.38382812 0 1 C0 0.67 0 0.34 0 0 Z " fill="#191245" transform="translate(419,351)"/>
<path d="M0 0 C-0.66666667 1.33333333 -1.33333333 2.66666667 -2 4 C-2.2475 4.70125 -2.495 5.4025 -2.75 6.125 C-4 8 -4 8 -6.6875 8.8125 C-11.25917651 10.4514029 -13.79342178 13.45189274 -17 17 C-17.66 16.67 -18.32 16.34 -19 16 C-16.91975578 13.89270058 -14.83597761 11.78911127 -12.75 9.6875 C-11.87021484 8.79514648 -11.87021484 8.79514648 -10.97265625 7.88476562 C-3.13193959 0 -3.13193959 0 0 0 Z " fill="#FAE3AA" transform="translate(595,312)"/>
<path d="M0 0 C0.66 0.33 1.32 0.66 2 1 C1.2575 1.556875 0.515 2.11375 -0.25 2.6875 C-3.05586073 4.88720996 -3.05586073 4.88720996 -5.0625 7.625 C-7.03482568 10.04268954 -8.25152422 10.71165198 -11 12 C-12.37086915 13.29470975 -13.71340837 14.62150897 -15 16 C-15.66 15.67 -16.32 15.34 -17 15 C-11.64381862 9.44983217 -6.47601564 4.22348846 0 0 Z " fill="#F6E3AB" transform="translate(310,292)"/>
<path d="M0 0 C0.46148437 0.36351562 0.92296875 0.72703125 1.3984375 1.1015625 C6.01070682 4.65647364 10.74146083 7.72237093 15.80078125 10.60546875 C17.84712748 11.90306307 19.37433495 13.21650339 21 15 C16.87248551 14.39301257 13.6678852 12.96189209 10 11 C10 10.34 10 9.68 10 9 C9.278125 8.773125 8.55625 8.54625 7.8125 8.3125 C4.43567583 6.73664872 2.44232961 4.79123384 0 2 C0 1.34 0 0.68 0 0 Z " fill="#F1DFA8" transform="translate(356,425)"/>
<path d="M0 0 C1.09570312 0.00902344 2.19140625 0.01804687 3.3203125 0.02734375 C4.16335938 0.03894531 5.00640625 0.05054688 5.875 0.0625 C5.875 1.0525 5.875 2.0425 5.875 3.0625 C3.91696493 3.11639087 1.95851091 3.15524217 0 3.1875 C-1.09054687 3.21070313 -2.18109375 3.23390625 -3.3046875 3.2578125 C-6.125 3.0625 -6.125 3.0625 -8.125 1.0625 C-5.36047967 -0.31976016 -3.0788637 -0.03275387 0 0 Z " fill="#241B4C" transform="translate(392.125,438.9375)"/>
<path d="M0 0 C2.75979741 3.28585851 4.18309468 6.62228796 5.6875 10.625 C6.12449219 11.77226562 6.56148437 12.91953125 7.01171875 14.1015625 C8 17 8 17 8 19 C7.34 19 6.68 19 6 19 C4.99141578 16.58660204 3.99297327 14.16981325 3 11.75 C2.57074219 10.72712891 2.57074219 10.72712891 2.1328125 9.68359375 C0.70654506 6.18584265 0 3.83099811 0 0 Z " fill="#EAD5A4" transform="translate(748,336)"/>
<path d="M0 0 C0.33 0.99 0.66 1.98 1 3 C-0.01320313 3.90492188 -0.01320313 3.90492188 -1.046875 4.828125 C-1.93890625 5.62734375 -2.8309375 6.4265625 -3.75 7.25 C-4.63171875 8.03890625 -5.5134375 8.8278125 -6.421875 9.640625 C-8.06301208 11.14251408 -9.6631765 12.69139677 -11.203125 14.296875 C-13 16 -13 16 -15 16 C-15 15.34 -15 14.68 -15 14 C-13.49609375 12.51953125 -13.49609375 12.51953125 -11.4375 10.8125 C-7.41324753 7.39798275 -3.67809995 3.78154651 0 0 Z " fill="#6160F7" transform="translate(679,805)"/>
<path d="M0 0 C-0.55429687 0.25394531 -1.10859375 0.50789062 -1.6796875 0.76953125 C-2.40414062 1.11371094 -3.12859375 1.45789063 -3.875 1.8125 C-4.59429688 2.14894531 -5.31359375 2.48539063 -6.0546875 2.83203125 C-8.30542806 3.99467097 -8.30542806 3.99467097 -10 7 C-13.625 7.6875 -13.625 7.6875 -17 8 C-13.2438856 3.39022324 -5.96911561 -1.9897052 0 0 Z " fill="#5559E0" transform="translate(774,184)"/>
<path d="M0 0 C0.66 0 1.32 0 2 0 C0.49866245 3.39940161 -1.4761038 5.91441862 -3.9375 8.6875 C-4.62714844 9.47511719 -5.31679687 10.26273438 -6.02734375 11.07421875 C-8 13 -8 13 -11 14 C-9.53417985 10.57719483 -7.61937745 8.43519517 -4.9375 5.875 C-2.08428067 3.22095 -2.08428067 3.22095 0 0 Z " fill="#555AE1" transform="translate(234,784)"/>
<path d="M0 0 C4.49699606 3.65461928 8.62848394 7.25880554 12 12 C11.67 12.99 11.34 13.98 11 15 C9.5369343 13.25395451 8.0797192 11.50300547 6.625 9.75 C5.81289063 8.77546875 5.00078125 7.8009375 4.1640625 6.796875 C2.42148243 4.5447318 1.123584 2.59288614 0 0 Z " fill="#281D40" transform="translate(467,308)"/>
<path d="M0 0 C3.85025879 0.60355408 6.86101159 1.76772603 10.3125 3.5625 C11.19550781 4.01753906 12.07851563 4.47257813 12.98828125 4.94140625 C13.65214844 5.29074219 14.31601562 5.64007813 15 6 C11.41282801 7.195724 10.11477791 6.43953627 6.78515625 4.8984375 C4.43592636 3.71611174 2.18870129 2.45913419 0 1 C0 0.67 0 0.34 0 0 Z " fill="#5559DF" transform="translate(298,208)"/>
<path d="M0 0 C7.42857143 -0.28571429 7.42857143 -0.28571429 11 2 C7.52674819 3.1577506 4.63932552 3.06866652 1 3 C0.67 2.01 0.34 1.02 0 0 Z " fill="#1F1749" transform="translate(621,507)"/>
<path d="M0 0 C0.66 0.33 1.32 0.66 2 1 C0.50260417 2.23697917 -0.99479167 3.47395833 -2.4921875 4.7109375 C-3.71051161 5.75250992 -4.86660097 6.86660097 -6 8 C-7.32 7.67 -8.64 7.34 -10 7 C-6.7 4.69 -3.4 2.38 0 0 Z " fill="#5559DE" transform="translate(375,224)"/>
<path d="M0 0 C4.30840713 1.07710178 7.63576723 2.03947516 11 5 C6.62886504 4.49172849 3.61004338 3.54826592 0 1 C0 0.67 0 0.34 0 0 Z " fill="#20194B" transform="translate(583,521)"/>
<path d="M0 0 C3.63 0.33 7.26 0.66 11 1 C9.02 1.99 9.02 1.99 7 3 C6.34 3.66 5.68 4.32 5 5 C5 4.34 5 3.68 5 3 C4.01 2.67 3.02 2.34 2 2 C1.34 1.34 0.68 0.68 0 0 Z " fill="#F3CA9E" transform="translate(645,289)"/>
<path d="M0 0 C0 3.93169105 -1.39419615 5.16427228 -4 8 C-4.66 8 -5.32 8 -6 8 C-4.55746343 4.63408134 -2.66735273 2.48952921 0 0 Z " fill="#1B1449" transform="translate(665,781)"/>
<path d="M0 0 C0.33 1.32 0.66 2.64 1 4 C-0.9375 6.25 -0.9375 6.25 -3 8 C-3.66 7.67 -4.32 7.34 -5 7 C-3.35 4.69 -1.7 2.38 0 0 Z " fill="#5D5EEF" transform="translate(719,753)"/>
<path d="M0 0 C0.8125 1.6875 0.8125 1.6875 1 4 C-1.4375 6.75 -1.4375 6.75 -4 9 C-3.46930939 5.17902761 -2.50298434 2.93828597 0 0 Z " fill="#1B1546" transform="translate(589,364)"/>
<path d="M0 0 C0.66 0.33 1.32 0.66 2 1 C1.01 3.97 0.02 6.94 -1 10 C-1.33 10 -1.66 10 -2 10 C-1.85950482 8.52031676 -1.71245174 7.04125484 -1.5625 5.5625 C-1.48128906 4.73878906 -1.40007812 3.91507812 -1.31640625 3.06640625 C-1 1 -1 1 0 0 Z " fill="#291F43" transform="translate(242,344)"/>
<path d="M0 0 C0.33 0.99 0.66 1.98 1 3 C-0.40445835 5.2636564 -2.1967913 7.0208685 -4 9 C-4 6.37886292 -3.68707555 4.49064888 -3 2 C-2.34 2 -1.68 2 -1 2 C-0.67 1.34 -0.34 0.68 0 0 Z " fill="#5459DE" transform="translate(275,696)"/>
<path d="M0 0 C0.33 0 0.66 0 1 0 C1.36923077 6.52307692 1.36923077 6.52307692 -0.5 8.9375 C-0.995 9.288125 -1.49 9.63875 -2 10 C-1.54177532 6.53058454 -1.10868317 3.32604951 0 0 Z " fill="#5E5FF4" transform="translate(805,188)"/>
<path d="M0 0 C0.53625 0.226875 1.0725 0.45375 1.625 0.6875 C-3.79038462 3.76442308 -3.79038462 3.76442308 -6.75 3.375 C-7.554375 3.0346875 -7.554375 3.0346875 -8.375 2.6875 C-2.95961538 -0.38942308 -2.95961538 -0.38942308 0 0 Z " fill="#281D42" transform="translate(700.375,189.3125)"/>
</svg>
